<svg xmlns="http://www.w3.org/2000/svg" xmlns:xlink="http://www.w3.org/1999/xlink" viewBox="0 0 169.026 49.479"><defs><path id="a" d="M.104 0h24.609c3.389 0 6.726.677 9.854 1.979 4.067 1.719 7.612 4.583 10.219 8.125 1.773 2.396 3.076 5.104 3.91 8.021 1.043 3.802 1.199 7.917.365 11.771-.678 3.073-1.929 6.042-3.702 8.646a24.947 24.947 0 0 1-6.465 6.562 24.217 24.217 0 0 1-8.55 3.75 26.48 26.48 0 0 1-5.735.625H.574l10.167-10c3.024-.052 5.683-.156 8.915-.156h4.953c1.147 0 2.346-.104 3.441-.365 1.773-.417 3.493-1.146 5.005-2.188a15.085 15.085 0 0 0 3.858-3.854c1.043-1.51 1.773-3.281 2.138-5.104.469-2.292.417-4.74-.209-6.979a14.519 14.519 0 0 0-2.294-4.687c-1.512-2.083-3.65-3.802-6.048-4.792-1.825-.781-3.858-1.146-5.839-1.146H.001L.104 0z"/></defs><clipPath id="b"><use xlink:href="#a" overflow="visible"/></clipPath><g clip-path="url(#b)"><defs><path id="c" d="M-.417-.365h169.828v50H-.417z"/></defs><clipPath id="d"><use xlink:href="#c" overflow="visible"/></clipPath><path clip-path="url(#d)" fill="#fff" d="M-5-5h59.595v59.479H-5z"/></g><defs><path id="e" d="M.104 48.958V13.646h25.078v8.489H10.271v4.011H22.94v8.437H10.271v4.375z"/></defs><clipPath id="f"><use xlink:href="#e" overflow="visible"/></clipPath><g clip-path="url(#f)"><defs><path id="g" d="M-.417-.365h169.828v50H-.417z"/></defs><clipPath id="h"><use xlink:href="#g" overflow="visible"/></clipPath><path clip-path="url(#h)" fill="#f36b21" d="M-4.896 8.646h35.078v45.312H-4.896z"/></g><defs><path id="i" d="M65.379 26.198c1.72 0 3.128-.469 4.171-1.354 2.138-1.823 2.085-5.938 0-7.813-1.043-.938-2.45-1.354-4.171-1.354h-2.346v10.521h2.346zm13.086-15.625h16.527v5.052H84.148v3.49h9.489v4.792h-9.489v7.396h-5.735v-20.73h.052zm-21.167 0h7.977c1.877 0 3.493.26 4.953.729 1.46.521 2.659 1.198 3.65 2.135a8.907 8.907 0 0 1 2.294 3.229c1.043 2.552 1.043 5.781 0 8.333-.521 1.25-1.303 2.396-2.294 3.281-.991.938-2.242 1.667-3.702 2.188-1.46.521-3.128.781-5.005.781h-7.873V10.573z"/></defs><clipPath id="j"><use xlink:href="#i" overflow="visible"/></clipPath><g clip-path="url(#j)"><defs><path id="k" d="M-.417-.365h169.828v50H-.417z"/></defs><clipPath id="l"><use xlink:href="#k" overflow="visible"/></clipPath><path clip-path="url(#l)" fill="#fff" d="M52.298 5.573h47.694v30.729H52.298z"/></g><defs><path id="m" d="M134.772 10.573h9.28c2.398 0 4.171.625 5.422 1.823.938.938 1.408 2.083 1.408 3.438v.052a5.31 5.31 0 0 1-.261 1.667 4.662 4.662 0 0 1-.626 1.25 4.035 4.035 0 0 1-.938.938c-.365.26-.73.521-1.095.729.626.208 1.147.469 1.668.729.521.26.938.625 1.303 1.042.365.417.626.833.834 1.406.209.521.313 1.146.313 1.875v.052c0 .938-.156 1.771-.521 2.448-.365.729-.886 1.302-1.564 1.771-.678.469-1.46.833-2.398 1.094-.938.26-1.981.365-3.128.365h-9.593V10.573h-.104zm9.645 17.5c1.251 0 2.19-.26 2.92-.729s1.043-1.198 1.043-2.135v-.052c0-.885-.365-1.562-1.043-2.031s-1.773-.729-3.18-.729h-4.432v-3.073h3.597c1.199 0 2.138-.208 2.815-.677.73-.469 1.043-1.146 1.043-2.135v-.052c0-.833-.313-1.458-.938-1.927-.626-.469-1.512-.677-2.711-.677h-5.214v14.271h6.1v-.054zm17.205 3.49c-1.616 0-3.128-.26-4.588-.833-1.46-.521-2.815-1.354-4.067-2.5l2.19-2.604c.991.885 2.033 1.51 3.024 1.979 1.043.469 2.19.677 3.493.677 1.147 0 2.033-.26 2.659-.729.678-.469.991-1.094.991-1.875 0-.365-.052-.729-.208-.99-.104-.26-.365-.573-.73-.833s-.834-.469-1.408-.729a24.265 24.265 0 0 0-2.346-.625 29.315 29.315 0 0 1-2.972-.885 8.779 8.779 0 0 1-2.19-1.198 4.85 4.85 0 0 1-1.356-1.719c-.313-.677-.469-1.458-.469-2.448v.052c0-.885.156-1.719.521-2.448a5.703 5.703 0 0 1 1.46-1.875 7.142 7.142 0 0 1 2.242-1.25 8.416 8.416 0 0 1 2.815-.469c1.512 0 2.867.208 4.119.677a14.138 14.138 0 0 1 3.441 1.927l-1.929 2.76c-.938-.677-1.877-1.198-2.815-1.562-.938-.365-1.877-.573-2.815-.573-1.043 0-1.877.26-2.503.729-.574.469-.886 1.042-.886 1.719v.052c0 .417.052.729.209 1.042.156.312.365.573.73.833s.886.469 1.512.677c.626.208 1.46.469 2.45.677a16.79 16.79 0 0 1 2.868.938c.834.312 1.564.729 2.085 1.25a4.262 4.262 0 0 1 1.251 1.667c.261.625.417 1.406.417 2.24v.052a6.81 6.81 0 0 1-.521 2.604 5.534 5.534 0 0 1-1.512 1.927c-.626.521-1.408.938-2.346 1.198-.73.363-1.721.468-2.816.468zm-39.31-16.771l-3.545 8.281h5.422c.417 1.042.886 2.031 1.356 3.229h-8.133l-2.138 5h-3.754l9.124-20.833h3.389l9.124 20.833h-3.858c-3.129-7.5-3.546-8.542-6.987-16.51zm-25.443-4.219h3.597v17.396h10.792l-1.46 3.281H96.817V10.573h.052z"/></defs><clipPath id="n"><use xlink:href="#m" overflow="visible"/></clipPath><g clip-path="url(#n)"><defs><path id="o" d="M-.417-.365h169.828v50H-.417z"/></defs><clipPath id="p"><use xlink:href="#o" overflow="visible"/></clipPath><path clip-path="url(#p)" fill="#f36b21" d="M91.817 5.26h82v31.302h-82z"/></g><g><defs><path id="q" d="M59.592 39.219c-.313 0-.626-.052-.886-.156a2.177 2.177 0 0 1-.73-.469 2.173 2.173 0 0 1-.469-.729c-.104-.26-.156-.573-.156-.885s.052-.625.156-.885c.104-.26.261-.521.469-.729.209-.208.469-.365.73-.521.261-.104.574-.208.938-.208.209 0 .417 0 .574.052l.469.156c.156.052.261.156.417.208.104.104.209.156.365.26l-.521.573a2.344 2.344 0 0 0-.573-.417 1.448 1.448 0 0 0-.678-.156 1.87 1.87 0 0 0-.573.104c-.156.104-.365.208-.469.365a1.08 1.08 0 0 0-.313.521c-.052.208-.104.417-.104.625 0 .208.052.417.104.625.052.208.156.365.313.521.156.156.313.26.469.365.156.104.365.104.573.104.261 0 .521-.052.73-.156.209-.104.417-.26.573-.417l.521.521c-.104.104-.261.208-.365.312-.104.104-.261.156-.417.26l-.469.156c-.261-.052-.47 0-.678 0zm3.597-1.875l-1.773-2.708h.938l1.251 1.979 1.251-1.979h.886l-1.773 2.708v1.771h-.782v-1.771zm5.057 1.094c.261 0 .469-.052.626-.156.156-.104.209-.26.209-.469 0-.208-.052-.365-.209-.469-.156-.104-.365-.156-.678-.156h-1.251v1.25h1.303zm-.26-1.928c.261 0 .469-.052.626-.156.156-.104.209-.26.209-.469a.474.474 0 0 0-.209-.417c-.156-.104-.313-.156-.574-.156h-1.147v1.198h1.095zm-1.825-1.875h2.033c.521 0 .886.156 1.199.417.209.208.313.469.313.729 0 .156 0 .26-.052.365-.052.104-.104.208-.156.26a.404.404 0 0 1-.209.208 1.124 1.124 0 0 1-.261.156c.156.052.261.104.365.156.104.052.209.156.261.208.104.104.156.208.156.312.052.104.052.26.052.417 0 .208-.052.365-.104.521-.104.156-.209.26-.313.365-.156.104-.313.156-.521.26-.209.052-.417.104-.678.104h-2.085v-4.478zm4.275 0h3.337v.729h-2.555v1.146h2.242v.729h-2.242v1.198h2.555v.729h-3.337v-4.531zm5.891 2.24c.261 0 .521-.052.678-.208s.261-.312.261-.573c0-.26-.104-.417-.261-.573a1.305 1.305 0 0 0-.678-.208H75.18v1.51h1.147v.052zm-1.981-2.24h1.981c.261 0 .521.052.73.104.209.104.417.208.521.312.104.104.209.26.261.417.052.156.104.365.104.521 0 .208-.052.365-.104.521-.052.156-.104.26-.209.417l-.313.312c-.104.104-.261.156-.417.208l1.199 1.719h-.834l-1.095-1.562h-.99v1.562h-.782v-4.531h-.052zm5.787 0h.782v4.479h-.782v-4.479zm1.617 0h.73l2.398 3.125v-3.125h.782v4.479h-.678l-2.45-3.177v3.177h-.782v-4.479zm6.829 4.584c-.313 0-.626-.052-.886-.156a2.177 2.177 0 0 1-.73-.469 2.173 2.173 0 0 1-.469-.729c-.104-.26-.156-.573-.156-.885s.052-.625.156-.885c.104-.26.261-.521.469-.729.209-.208.469-.365.73-.521.261-.104.574-.208.938-.208.209 0 .417 0 .573.052l.469.156c.156.052.261.156.417.208.104.104.209.156.365.26l-.521.573a2.33 2.33 0 0 0-.574-.417 1.448 1.448 0 0 0-.678-.156 1.87 1.87 0 0 0-.573.104c-.156.104-.365.208-.469.365a1.08 1.08 0 0 0-.313.521c-.052.208-.104.417-.104.625 0 .208.052.417.104.625.052.208.156.365.313.521s.313.26.469.365c.156.104.365.104.573.104.261 0 .521-.052.73-.156.209-.104.417-.26.574-.417l.521.521c-.104.104-.261.208-.365.312-.104.104-.261.156-.417.26l-.469.156c-.259-.052-.468 0-.677 0zm2.347-4.584h.782v4.479h-.782v-4.479zm3.284 3.75c.261 0 .469-.052.626-.104a.757.757 0 0 0 .469-.312c.156-.156.261-.312.313-.469.052-.208.104-.365.104-.625 0-.208-.052-.417-.104-.625a.757.757 0 0 0-.313-.469 1.23 1.23 0 0 0-.469-.312c-.209-.052-.417-.104-.626-.104h-.886v3.073h.886v-.053zm-1.668-3.75h1.668c.365 0 .678.052.991.156.313.104.521.26.782.469.209.208.365.417.469.729s.156.573.156.885-.052.625-.156.885c-.104.26-.261.521-.469.729a1.968 1.968 0 0 1-.782.469 3.046 3.046 0 0 1-.991.156h-1.668v-4.478zm4.692 0h3.337v.729h-2.555v1.146h2.242v.729h-2.242v1.198h2.555v.729h-3.337v-4.531zm3.962 0h.73l2.398 3.125v-3.125h.782v4.479h-.678l-2.45-3.177v3.177h-.782v-4.479zm5.788.73h-1.408v-.729h3.65v.729h-1.408v3.75h-.834v-3.75zm4.327 3.802c-.365 0-.678-.052-.991-.156-.313-.104-.626-.312-.886-.521l.469-.573c.209.208.417.312.678.417.208.104.469.156.782.156.261 0 .417-.052.574-.156a.474.474 0 0 0 .209-.417c0-.104 0-.156-.052-.208l-.156-.156c-.052-.052-.156-.104-.313-.156a6.582 6.582 0 0 0-.521-.156c-.261-.052-.469-.104-.626-.208a1.01 1.01 0 0 1-.469-.26c-.104-.104-.209-.208-.313-.365-.052-.156-.104-.312-.104-.521 0-.208.052-.365.104-.521a.812.812 0 0 1 .313-.417c.156-.104.313-.208.469-.26.209-.052.417-.104.626-.104.313 0 .626.052.886.156.261.104.521.26.73.417l-.417.573c-.209-.156-.417-.26-.626-.365-.209-.104-.417-.104-.626-.104-.209 0-.417.052-.521.156-.104.104-.209.208-.209.365 0 .104 0 .156.052.208l.157.156.313.156c.156.052.313.104.521.156.261.052.469.104.626.208.156.052.313.156.469.26.104.104.208.208.261.365.052.156.104.312.104.469 0 .208-.052.417-.104.573a2.955 2.955 0 0 1-.313.417c-.157.104-.313.208-.521.26-.158.156-.367.156-.575.156zm5.422 0c-.313 0-.574-.052-.782-.104a2.444 2.444 0 0 1-.626-.365c-.209-.156-.313-.365-.365-.625a2.16 2.16 0 0 1-.156-.833v-2.604h.782v2.552c0 .417.104.729.313.938.208.208.469.312.834.312s.626-.104.834-.312c.209-.208.313-.521.313-.938v-2.604h.782v2.552c0 .312-.052.625-.156.885-.104.26-.209.469-.365.625s-.365.312-.626.365c-.208.156-.469.156-.782.156zm2.659-4.532h.73l2.398 3.125v-3.125h.782v4.479h-.678l-2.45-3.177v3.177h-.782v-4.479zm6.413 3.75c.261 0 .469-.052.626-.104a.757.757 0 0 0 .469-.312c.156-.156.261-.312.313-.469.052-.208.104-.365.104-.625 0-.208-.052-.417-.104-.625a.757.757 0 0 0-.313-.469 1.23 1.23 0 0 0-.469-.312c-.208-.052-.417-.104-.626-.104h-.886v3.073h.886v-.053zm-1.669-3.75h1.668c.365 0 .678.052.991.156.313.104.521.26.782.469.208.208.365.417.469.729.104.26.156.573.156.885s-.052.625-.156.885c-.104.26-.261.521-.469.729a1.968 1.968 0 0 1-.782.469 3.046 3.046 0 0 1-.991.156h-1.668v-4.478zm4.64 0h3.337v.729h-2.555v1.146h2.242v.729h-2.242v1.198h2.555v.729h-3.337v-4.531zm5.892 2.24c.261 0 .521-.052.678-.208s.261-.312.261-.573c0-.26-.104-.417-.261-.573a1.305 1.305 0 0 0-.678-.208h-1.147v1.51h1.147v.052zm-1.929-2.24h1.981c.261 0 .521.052.73.104.208.104.417.208.521.312.104.104.209.26.261.417.052.156.104.365.104.521 0 .208-.052.365-.104.521-.052.156-.104.26-.208.417l-.313.312c-.104.104-.261.156-.417.208l1.199 1.719h-.938l-1.095-1.562h-.991v1.562h-.782v-4.531h.052zm7.82 4.584c-.313 0-.626-.052-.938-.156a2.177 2.177 0 0 1-.73-.469 2.173 2.173 0 0 1-.469-.729c-.104-.26-.156-.573-.156-.885s.052-.625.156-.885c.104-.26.261-.521.469-.729.208-.208.469-.365.73-.521.261-.104.574-.208.938-.208.209 0 .417 0 .574.052l.469.156c.156.052.261.156.417.208.104.104.209.156.365.26l-.521.573a2.344 2.344 0 0 0-.573-.417 1.448 1.448 0 0 0-.678-.156c-.208 0-.417.052-.574.104-.156.104-.365.208-.469.365a1.08 1.08 0 0 0-.313.521c-.052.208-.104.417-.104.625 0 .208.052.417.104.625.052.208.156.365.313.521s.313.26.469.365c.157.104.365.104.574.104.261 0 .521-.052.73-.156.208-.104.417-.26.573-.417l.521.521c-.104.104-.261.208-.365.312-.104.104-.261.156-.417.26l-.469.156c-.209-.052-.417 0-.626 0zm4.432-.729c.208 0 .417-.052.626-.104.209-.104.365-.208.469-.365a1.08 1.08 0 0 0 .313-.521c.052-.208.104-.417.104-.625 0-.208-.052-.417-.104-.625a1.076 1.076 0 0 0-.313-.521c-.156-.156-.313-.26-.469-.365-.208-.104-.417-.104-.626-.104-.209 0-.417.052-.626.104-.209.104-.365.208-.469.365a1.08 1.08 0 0 0-.313.521c-.052.208-.104.417-.104.625 0 .208.052.417.104.625.052.208.156.365.313.521s.313.26.469.365c.209.052.417.104.626.104zm0 .729c-.365 0-.678-.052-.938-.208-.313-.104-.521-.312-.73-.521a2.188 2.188 0 0 1-.469-.729c-.104-.26-.156-.573-.156-.885s.052-.625.156-.885c.104-.26.261-.521.469-.729.209-.208.469-.365.73-.521.313-.104.626-.208.938-.208.365 0 .678.052.938.208.261.104.521.312.73.521.209.208.365.469.469.729.104.26.156.573.156.885s-.052.625-.156.885c-.104.26-.261.521-.469.729-.208.208-.469.365-.73.521-.26.104-.573.208-.938.208zm2.972-4.584h.73l2.398 3.125v-3.125h.782v4.479h-.678l-2.45-3.177v3.177h-.782v-4.479zm5.839.73h-1.46v-.729h3.65v.729h-1.408v3.75h-.782v-3.75zm4.64 1.51c.261 0 .521-.052.678-.208s.261-.312.261-.573c0-.26-.104-.417-.261-.573a1.305 1.305 0 0 0-.678-.208h-1.147v1.51h1.147v.052zm-1.981-2.24h1.981c.261 0 .521.052.73.104.209.104.417.208.521.312.104.104.208.26.261.417.052.156.104.365.104.521 0 .208-.052.365-.104.521-.052.156-.104.26-.209.417l-.313.312a1.562 1.562 0 0 1-.417.208l1.199 1.719h-.938l-1.095-1.562h-.991v1.562h-.782v-4.531h.053zm6.465 3.855c.209 0 .417-.052.626-.104.208-.104.365-.208.469-.365a1.08 1.08 0 0 0 .313-.521c.052-.208.104-.417.104-.625 0-.208-.052-.417-.104-.625a1.076 1.076 0 0 0-.313-.521c-.156-.156-.313-.26-.469-.365-.209-.104-.417-.104-.626-.104-.208 0-.417.052-.626.104-.208.104-.365.208-.469.365a1.08 1.08 0 0 0-.313.521c-.052.208-.104.417-.104.625 0 .208.052.417.104.625.052.208.156.365.313.521.156.156.313.26.469.365.209.052.417.104.626.104zm0 .729c-.365 0-.678-.052-.938-.208-.261-.104-.521-.312-.73-.521a2.173 2.173 0 0 1-.469-.729c-.104-.26-.156-.573-.156-.885s.052-.625.156-.885c.104-.26.261-.521.469-.729.209-.208.469-.365.73-.521.261-.104.626-.208.938-.208.365 0 .678.052.939.208.261.104.521.312.73.521.209.208.365.469.469.729.104.26.156.573.156.885s-.052.625-.156.885c-.104.26-.261.521-.469.729-.208.208-.469.365-.73.521-.262.104-.574.208-.939.208zm2.971-4.584h.782v3.802h2.346v.729h-3.128v-4.531z"/></defs><clipPath id="r"><use xlink:href="#q" overflow="visible"/></clipPath><g clip-path="url(#r)"><defs><path id="s" d="M-.417-.365h169.828v50H-.417z"/></defs><clipPath id="t"><use xlink:href="#s" overflow="visible"/></clipPath><path clip-path="url(#t)" fill="#fff" d="M52.35 29.531h121.676v14.688H52.35z"/></g></g></svg>