<?xml version="1.0" encoding="utf-8"?>
<!-- Generator: Adobe Illustrator 23.0.1, SVG Export Plug-In . SVG Version: 6.00 Build 0)  -->
<svg version="1.1" id="Layer_1" xmlns="http://www.w3.org/2000/svg" xmlns:xlink="http://www.w3.org/1999/xlink" x="0px" y="0px"
	 viewBox="0 0 633 216" style="enable-background:new 0 0 633 216;" xml:space="preserve">
<style type="text/css">
	.st0{fill:#3F4444;}
	.st1{enable-background:new    ;}
	.st2{fill:#43B02A;}
</style>
<title>Indegy_Logo_Tagline_Activate_Vertical</title>
<g id="Logo_03">
	<rect x="217.4" y="54.6" class="st0" width="13.5" height="80"/>
	<path class="st0" d="M256.3,101.3c0-8.7,4.3-18.9,16.4-18.9c8.5,0,13,5,13,14.4v37.8h13.6V95.7c0-16-7.7-24.3-23-24.1
		c-9.2,0.1-15.7,2.9-20.5,9.2l-3.6-8.3h-9.6v62.1h13.6L256.3,101.3z"/>
	<path class="st0" d="M358.3,126.8l3.4,8h9.6V54.6h-13.6v25.5c-3.5-4.3-9.9-8.7-20.8-8.7c-17.4,0-28.6,12.7-28.6,32.3
		c0,9,2.4,16.8,7,22.5c5,6.2,12.5,9.5,21.5,9.5C346.3,135.8,353.7,132.9,358.3,126.8 M358,103.8c0,14.6-9,21.1-17.8,21.1
		c-11.4,0-17.9-7.7-17.9-21.1c0-13.6,6.5-21.3,17.9-21.3C349,82.4,358,89,358,103.8"/>
	<path class="st0" d="M438.2,130.4l0.8-0.4l-4.2-9.8c-3.8,1.7-10.8,4.9-19.5,4.9c-12.6,0-20.1-6.3-20.7-16.4h46.2
		c0,0,0.5-4.6,0.5-7.1c0-9-3.1-17.3-7.3-21.9c-5.1-5.7-11.6-9.8-21.9-9.8c-19.3,0-31.7,14.4-31.7,34.2c0,9.7,3,17.7,8.7,23.1
		c5.9,5.6,14.3,9,25,9C422.3,136.2,430.5,133.9,438.2,130.4 M394.5,98.5c2-10.5,8.7-16.8,18-16.8c13.1,0,16.1,10.5,16.3,16.8H394.5z
		"/>
	<path class="st0" d="M508.9,82.1l-4.1-9.6h-17.1c-3.2-0.7-6.5-1-9.8-0.9c-17.9,0-27.8,7.5-27.8,21.2c0,5.9,1.8,10.6,5.3,14
		c-3.6,2.6-5.8,6.8-5.7,11.3c-0.2,3.7,1.6,7.3,4.6,9.5c-4.1,3.1-6.2,7.1-6.2,11.9c0,10.6,9.8,16,29.2,16c20.2,0,30.4-6.2,30.4-18.5
		c0-10.3-7.4-15.6-21.9-15.6h-9.2c-9.4,0-14.8-0.8-14.9-5.1c-0.1-1.7,0.7-3.1,2.5-4.4c4.4,1.3,9,1.9,13.5,1.8
		c17.2,0,27.4-7.3,27.4-19.6c0.1-4-1.2-7.9-3.8-11l0,0L508.9,82.1z M465.2,131.6c4.1,0.5,8.2,0.8,12.3,0.7h7.1
		c6.7,0,9.3,1.4,9.3,5.1c0,6.1-7.8,6.9-16.3,6.9c-9.7,0-16.2-1.1-16.2-6.7C461.4,135.2,462.6,133.3,465.2,131.6z M477.6,102.5
		c-5.1,0-13.6-1.3-13.6-9.9c0-6.3,5-10,13.7-10c5,0,13.5,1.3,13.5,10C491.2,99,486.4,102.5,477.6,102.5L477.6,102.5z"/>
	<path class="st0" d="M526.4,72.5l18.8,46h0.2l17.1-46h13.9l-26.8,65.8c-4.4,10.5-8.9,17.2-19.3,17.2c-4.1,0-8.1-0.6-12-1.7
		l4.8-11.2c2.2,0.7,4.4,0.8,6.7,0.3c4.5-0.6,6.9-6,8.3-9.8l-25.7-60.6H526.4z"/>
	<g class="st1">
		<path class="st0" d="M228.8,164l9.2,23.6h-2.4l-2.9-7.3H222l-2.8,7.3h-2.4l9.5-23.6H228.8z M232,178.3l-4.6-12.1l-4.7,12.1H232z"
			/>
	</g>
	<g class="st1">
		<path class="st0" d="M250.7,172.9c-0.8-0.7-1.8-1.1-3.2-1.1c-1,0-1.9,0.2-2.6,0.6c-0.7,0.4-1.4,1-1.9,1.7
			c-0.5,0.7-0.9,1.5-1.1,2.3c-0.3,0.9-0.4,1.8-0.4,2.7s0.1,1.8,0.4,2.7c0.3,0.9,0.6,1.6,1.1,2.3c0.5,0.7,1.1,1.2,1.9,1.7
			c0.7,0.4,1.6,0.6,2.6,0.6c0.6,0,1.2-0.1,1.8-0.4c0.6-0.2,1.1-0.6,1.5-1c0.4-0.4,0.8-0.9,1.1-1.5c0.3-0.6,0.5-1.2,0.5-1.9h2.1
			c-0.3,2.1-1,3.7-2.3,4.8s-2.8,1.7-4.8,1.7c-1.3,0-2.4-0.2-3.4-0.7c-1-0.5-1.8-1.1-2.5-1.9c-0.7-0.8-1.2-1.8-1.6-2.9
			c-0.4-1.1-0.5-2.2-0.5-3.5s0.2-2.4,0.5-3.5c0.4-1.1,0.9-2,1.6-2.9c0.7-0.8,1.5-1.5,2.5-1.9c1-0.5,2.1-0.7,3.4-0.7
			c1.8,0,3.4,0.5,4.6,1.5c1.3,1,2,2.4,2.3,4.4h-2.1C252,174.6,251.4,173.6,250.7,172.9z"/>
	</g>
	<g class="st1">
		<path class="st0" d="M265,170.5v1.7h-3.5v11.5c0,0.7,0.1,1.2,0.3,1.6c0.2,0.4,0.7,0.6,1.4,0.6c0.6,0,1.2,0,1.8-0.1v1.7
			c-0.3,0-0.6,0-0.9,0c-0.3,0-0.6,0-0.9,0c-1.4,0-2.4-0.3-2.9-0.8c-0.6-0.5-0.8-1.5-0.8-3v-11.6h-3v-1.7h3v-5.1h2.1v5.1H265z"/>
	</g>
	<g class="st1">
		<path class="st0" d="M270.6,164v3.3h-2.1V164H270.6z M270.6,170.5v17h-2.1v-17H270.6z"/>
	</g>
	<g class="st1">
		<path class="st0" d="M275.9,170.5l5.3,14.9h0.1l5.3-14.9h2.1l-6.4,17h-2.2l-6.6-17H275.9z"/>
	</g>
	<g class="st1">
		<path class="st0" d="M291.7,173.2c0.4-0.7,0.8-1.3,1.4-1.8c0.6-0.5,1.3-0.8,2.1-1c0.8-0.2,1.7-0.3,2.7-0.3c0.7,0,1.5,0.1,2.2,0.2
			c0.7,0.1,1.4,0.4,2,0.8c0.6,0.4,1.1,1,1.5,1.7c0.4,0.7,0.6,1.6,0.6,2.8v9c0,0.8,0.4,1.3,1.2,1.3c0.2,0,0.5,0,0.7-0.1v1.7
			c-0.2,0-0.5,0.1-0.6,0.1c-0.2,0-0.4,0-0.7,0c-0.5,0-1-0.1-1.3-0.2c-0.3-0.1-0.6-0.3-0.7-0.6c-0.2-0.3-0.3-0.6-0.3-0.9
			c-0.1-0.4-0.1-0.8-0.1-1.2h-0.1c-0.4,0.5-0.8,1-1.1,1.5c-0.4,0.4-0.8,0.8-1.3,1.1c-0.5,0.3-1,0.5-1.6,0.7
			c-0.6,0.2-1.3,0.2-2.2,0.2c-0.8,0-1.5-0.1-2.2-0.3s-1.3-0.5-1.8-0.9c-0.5-0.4-0.9-0.9-1.2-1.6s-0.4-1.4-0.4-2.2
			c0-1.2,0.3-2.1,0.8-2.8c0.5-0.7,1.2-1.2,2.1-1.5c0.9-0.4,1.8-0.6,2.9-0.7c1.1-0.1,2.2-0.3,3.3-0.4c0.4,0,0.8-0.1,1.2-0.2
			c0.3-0.1,0.6-0.2,0.8-0.3s0.4-0.4,0.5-0.7c0.1-0.3,0.2-0.7,0.2-1.1c0-0.7-0.1-1.3-0.3-1.7c-0.2-0.5-0.6-0.8-1-1.1
			c-0.4-0.3-0.9-0.4-1.4-0.5c-0.5-0.1-1.1-0.1-1.7-0.1c-1.3,0-2.4,0.3-3.2,0.9c-0.8,0.6-1.3,1.6-1.3,3H291
			C291.1,174.8,291.3,173.9,291.7,173.2z M302.1,178.3c-0.1,0.2-0.4,0.4-0.8,0.5c-0.4,0.1-0.7,0.2-1,0.2c-0.9,0.2-1.8,0.3-2.7,0.4
			c-0.9,0.1-1.8,0.3-2.6,0.5s-1.4,0.6-1.9,1c-0.5,0.5-0.7,1.1-0.7,1.9c0,0.5,0.1,1,0.3,1.4c0.2,0.4,0.5,0.8,0.8,1.1
			c0.4,0.3,0.8,0.5,1.2,0.7c0.5,0.2,0.9,0.2,1.4,0.2c0.8,0,1.6-0.1,2.3-0.4c0.7-0.2,1.4-0.6,1.9-1.1c0.5-0.5,1-1,1.3-1.7
			c0.3-0.7,0.5-1.4,0.5-2.2L302.1,178.3L302.1,178.3z"/>
	</g>
	<g class="st1">
		<path class="st0" d="M315.6,170.5v1.7h-3.5v11.5c0,0.7,0.1,1.2,0.3,1.6c0.2,0.4,0.7,0.6,1.4,0.6c0.6,0,1.2,0,1.8-0.1v1.7
			c-0.3,0-0.6,0-0.9,0c-0.3,0-0.6,0-0.9,0c-1.4,0-2.4-0.3-2.9-0.8c-0.6-0.5-0.8-1.5-0.8-3v-11.6h-3v-1.7h3v-5.1h2.1v5.1H315.6z"/>
	</g>
	<g class="st1">
		<path class="st0" d="M320.2,181.9c0.2,0.8,0.5,1.5,1,2.2c0.5,0.6,1,1.2,1.7,1.6c0.7,0.4,1.6,0.6,2.5,0.6c1.5,0,2.7-0.4,3.6-1.2
			c0.9-0.8,1.5-1.8,1.8-3.2h2.1c-0.4,1.9-1.2,3.4-2.4,4.5s-2.8,1.6-5,1.6c-1.3,0-2.5-0.2-3.5-0.7c-1-0.5-1.8-1.1-2.4-1.9
			c-0.6-0.8-1.1-1.8-1.4-2.9s-0.4-2.2-0.4-3.4c0-1.1,0.1-2.2,0.4-3.3c0.3-1.1,0.8-2,1.4-2.9c0.6-0.8,1.4-1.5,2.4-2
			c1-0.5,2.1-0.8,3.5-0.8c1.4,0,2.5,0.3,3.5,0.8c1,0.6,1.8,1.3,2.4,2.2c0.6,0.9,1,1.9,1.3,3.1c0.3,1.2,0.4,2.3,0.3,3.5h-13.1
			C319.9,180.4,320,181.1,320.2,181.9z M330.5,175.6c-0.3-0.7-0.6-1.4-1.1-1.9c-0.5-0.6-1-1-1.7-1.4c-0.7-0.3-1.4-0.5-2.2-0.5
			c-0.9,0-1.6,0.2-2.3,0.5c-0.7,0.3-1.2,0.8-1.7,1.4c-0.5,0.6-0.8,1.2-1.1,1.9c-0.3,0.7-0.5,1.5-0.5,2.3h11
			C330.9,177.1,330.8,176.3,330.5,175.6z"/>
	</g>
	<g class="st1">
		<path class="st0" d="M357,164l9.2,23.6h-2.4l-2.9-7.3h-10.7l-2.8,7.3H345l9.5-23.6H357z M360.2,178.3l-4.6-12.1l-4.7,12.1H360.2z"
			/>
	</g>
	<g class="st1">
		<path class="st0" d="M371.2,164v23.6h-2.1V164H371.2z"/>
	</g>
	<g class="st1">
		<path class="st0" d="M378.1,164v23.6H376V164H378.1z"/>
	</g>
	<g class="st1">
		<path class="st0" d="M391.2,164h2.6l7.8,11.9l7.7-11.9h2.7l-9.3,13.9v9.7h-2.2v-9.7L391.2,164z"/>
	</g>
	<g class="st1">
		<path class="st0" d="M422.1,170.8c1,0.5,1.8,1.1,2.5,1.9c0.7,0.8,1.2,1.8,1.6,2.9c0.4,1.1,0.5,2.2,0.5,3.5s-0.2,2.4-0.5,3.5
			c-0.4,1.1-0.9,2-1.6,2.9c-0.7,0.8-1.5,1.5-2.5,1.9c-1,0.5-2.2,0.7-3.4,0.7s-2.4-0.2-3.4-0.7c-1-0.5-1.8-1.1-2.5-1.9
			s-1.2-1.8-1.6-2.9c-0.4-1.1-0.5-2.2-0.5-3.5s0.2-2.4,0.5-3.5c0.4-1.1,0.9-2,1.6-2.9c0.7-0.8,1.5-1.5,2.5-1.9
			c1-0.5,2.2-0.7,3.4-0.7S421.1,170.3,422.1,170.8z M416,172.4c-0.7,0.4-1.4,1-1.9,1.7c-0.5,0.7-0.9,1.5-1.1,2.3
			c-0.3,0.9-0.4,1.8-0.4,2.7s0.1,1.8,0.4,2.7c0.3,0.9,0.6,1.6,1.1,2.3c0.5,0.7,1.1,1.2,1.9,1.7c0.7,0.4,1.6,0.6,2.6,0.6
			c1,0,1.9-0.2,2.6-0.6s1.4-1,1.9-1.7c0.5-0.7,0.9-1.5,1.1-2.3s0.4-1.8,0.4-2.7s-0.1-1.8-0.4-2.7c-0.3-0.9-0.6-1.6-1.1-2.3
			c-0.5-0.7-1.1-1.2-1.9-1.7c-0.7-0.4-1.6-0.6-2.6-0.6C417.7,171.8,416.8,172,416,172.4z"/>
	</g>
	<g class="st1">
		<path class="st0" d="M442.5,187.6v-3.1h-0.1c-0.5,1.1-1.3,2-2.4,2.6c-1,0.6-2.2,0.9-3.5,0.9c-1.1,0-2-0.1-2.8-0.4
			c-0.8-0.3-1.4-0.7-1.8-1.3c-0.5-0.5-0.8-1.2-1-2c-0.2-0.8-0.3-1.7-0.3-2.7v-11.1h2.1v11.1c0,1.5,0.4,2.7,1.1,3.5s1.8,1.2,3.5,1.2
			c0.9,0,1.7-0.2,2.3-0.6c0.6-0.4,1.2-0.9,1.6-1.5c0.4-0.6,0.7-1.4,0.9-2.2s0.3-1.7,0.3-2.5v-8.9h2.1v17H442.5z"/>
	</g>
	<g class="st1">
		<path class="st0" d="M451.1,170.5v4h0.1c0.5-1.4,1.3-2.5,2.5-3.2c1.1-0.7,2.4-1.1,4-1v2.1c-0.9,0-1.8,0.1-2.6,0.4
			c-0.8,0.3-1.4,0.7-2,1.3c-0.6,0.6-1,1.2-1.3,2c-0.3,0.8-0.5,1.6-0.5,2.5v9.1h-2.1v-17H451.1z"/>
	</g>
	<g class="st1">
		<path class="st0" d="M473,182.8c0.4,0.8,0.9,1.5,1.6,1.9c0.7,0.5,1.5,0.8,2.5,1s2,0.3,3,0.3c0.6,0,1.3-0.1,2-0.3
			c0.7-0.2,1.4-0.5,2-0.8s1.1-0.9,1.6-1.5c0.4-0.6,0.6-1.3,0.6-2.2c0-0.7-0.1-1.2-0.4-1.7c-0.3-0.5-0.7-0.9-1.2-1.2
			c-0.5-0.3-1-0.6-1.6-0.8c-0.6-0.2-1.1-0.4-1.7-0.5l-5.2-1.3c-0.7-0.2-1.3-0.4-2-0.7c-0.6-0.3-1.2-0.6-1.7-1.1
			c-0.5-0.4-0.9-1-1.2-1.6c-0.3-0.6-0.4-1.4-0.4-2.3c0-0.6,0.1-1.2,0.3-2c0.2-0.8,0.6-1.5,1.2-2.2c0.6-0.7,1.4-1.3,2.5-1.7
			c1.1-0.5,2.4-0.7,4.1-0.7c1.2,0,2.3,0.2,3.3,0.5c1.1,0.3,2,0.8,2.8,1.4c0.8,0.6,1.4,1.4,1.9,2.3c0.5,0.9,0.7,2,0.7,3.2h-2.2
			c0-0.9-0.2-1.7-0.6-2.4c-0.4-0.7-0.8-1.2-1.4-1.7c-0.6-0.5-1.3-0.8-2-1c-0.8-0.2-1.6-0.3-2.4-0.3c-0.8,0-1.5,0.1-2.2,0.2
			c-0.7,0.2-1.3,0.4-1.9,0.8s-1,0.8-1.3,1.4s-0.5,1.3-0.5,2.2c0,0.5,0.1,1,0.3,1.4c0.2,0.4,0.4,0.8,0.8,1c0.3,0.3,0.7,0.5,1.1,0.7
			c0.4,0.2,0.9,0.3,1.4,0.4l5.7,1.4c0.8,0.2,1.6,0.5,2.4,0.8c0.7,0.3,1.4,0.7,1.9,1.2c0.6,0.5,1,1.1,1.3,1.7
			c0.3,0.7,0.5,1.5,0.5,2.5c0,0.3,0,0.6-0.1,1.1s-0.2,0.9-0.4,1.4c-0.2,0.5-0.5,1-0.9,1.5c-0.4,0.5-0.9,1-1.6,1.4s-1.5,0.7-2.5,1
			c-1,0.3-2.2,0.4-3.6,0.4c-1.4,0-2.7-0.2-3.9-0.5c-1.2-0.3-2.2-0.8-3-1.5c-0.8-0.7-1.5-1.5-1.9-2.5c-0.5-1-0.6-2.3-0.6-3.7h2.2
			C472.4,181,472.6,182,473,182.8z"/>
	</g>
	<g class="st1">
		<path class="st0" d="M494.1,181.9c0.2,0.8,0.5,1.5,1,2.2c0.5,0.6,1,1.2,1.7,1.6s1.6,0.6,2.5,0.6c1.5,0,2.7-0.4,3.6-1.2
			c0.9-0.8,1.5-1.8,1.8-3.2h2.1c-0.4,1.9-1.2,3.4-2.4,4.5c-1.2,1.1-2.8,1.6-5,1.6c-1.3,0-2.5-0.2-3.5-0.7c-1-0.5-1.8-1.1-2.4-1.9
			s-1.1-1.8-1.4-2.9s-0.4-2.2-0.4-3.4c0-1.1,0.1-2.2,0.4-3.3c0.3-1.1,0.8-2,1.4-2.9s1.4-1.5,2.4-2c1-0.5,2.1-0.8,3.5-0.8
			c1.4,0,2.5,0.3,3.5,0.8c1,0.6,1.8,1.3,2.4,2.2c0.6,0.9,1,1.9,1.3,3.1c0.3,1.2,0.4,2.3,0.3,3.5h-13.1
			C493.8,180.4,493.9,181.1,494.1,181.9z M504.4,175.6c-0.3-0.7-0.6-1.4-1.1-1.9c-0.5-0.6-1-1-1.7-1.4c-0.7-0.3-1.4-0.5-2.2-0.5
			c-0.9,0-1.6,0.2-2.3,0.5c-0.7,0.3-1.2,0.8-1.7,1.4c-0.5,0.6-0.8,1.2-1.1,1.9c-0.3,0.7-0.5,1.5-0.5,2.3h11
			C504.8,177.1,504.7,176.3,504.4,175.6z"/>
	</g>
	<g class="st1">
		<path class="st0" d="M512.8,170.5v2.9h0.1c0.4-1,1.1-1.9,2.1-2.5c1-0.6,2.1-0.9,3.3-0.9c1.2,0,2.2,0.2,3,0.5
			c0.8,0.3,1.4,0.7,1.9,1.3c0.5,0.6,0.8,1.2,1,2.1c0.2,0.8,0.3,1.7,0.3,2.7v11h-2.1v-10.6c0-0.7-0.1-1.4-0.2-2s-0.4-1.2-0.7-1.6
			c-0.3-0.5-0.8-0.8-1.3-1.1s-1.3-0.4-2.1-0.4s-1.6,0.1-2.2,0.4c-0.6,0.3-1.2,0.7-1.6,1.2c-0.5,0.5-0.8,1.1-1.1,1.8
			c-0.3,0.7-0.4,1.5-0.4,2.3v9.9h-2.1v-17H512.8z"/>
	</g>
	<g class="st1">
		<path class="st0" d="M539.1,173.8c-0.2-0.5-0.6-0.9-1-1.2c-0.4-0.3-0.9-0.5-1.4-0.7c-0.5-0.1-1.1-0.2-1.7-0.2
			c-0.5,0-0.9,0-1.4,0.1c-0.5,0.1-0.9,0.3-1.3,0.5c-0.4,0.2-0.7,0.5-1,0.9s-0.4,0.8-0.4,1.4c0,0.5,0.1,0.9,0.3,1.2
			c0.2,0.3,0.5,0.6,0.9,0.8c0.4,0.2,0.7,0.4,1.2,0.5c0.4,0.1,0.8,0.3,1.2,0.3l2.8,0.6c0.6,0.1,1.2,0.2,1.8,0.5
			c0.6,0.2,1.1,0.5,1.6,0.9c0.5,0.4,0.8,0.8,1.1,1.4c0.3,0.6,0.4,1.2,0.4,1.9c0,0.9-0.2,1.7-0.6,2.4c-0.4,0.6-1,1.2-1.6,1.6
			c-0.6,0.4-1.4,0.7-2.2,0.9c-0.8,0.2-1.6,0.3-2.4,0.3c-2,0-3.6-0.5-4.9-1.4c-1.2-0.9-2-2.5-2.1-4.6h2.1c0.1,1.4,0.6,2.5,1.5,3.2
			c0.9,0.7,2.1,1.1,3.5,1.1c0.5,0,1-0.1,1.6-0.2c0.5-0.1,1-0.3,1.5-0.6c0.5-0.3,0.8-0.6,1.1-1s0.4-0.9,0.4-1.5
			c0-0.5-0.1-0.9-0.3-1.3c-0.2-0.3-0.5-0.6-0.8-0.9c-0.4-0.2-0.8-0.4-1.2-0.6c-0.5-0.2-0.9-0.3-1.4-0.4l-2.7-0.6
			c-0.7-0.2-1.3-0.4-1.9-0.6c-0.6-0.2-1.1-0.5-1.5-0.9s-0.8-0.8-1-1.3s-0.4-1.1-0.4-1.8c0-0.9,0.2-1.6,0.6-2.2
			c0.4-0.6,0.9-1.1,1.5-1.5s1.3-0.6,2.1-0.8c0.8-0.2,1.5-0.3,2.3-0.3c0.9,0,1.7,0.1,2.4,0.3c0.7,0.2,1.4,0.6,1.9,1
			c0.6,0.5,1,1,1.3,1.7c0.3,0.7,0.5,1.5,0.6,2.4h-2.1C539.4,174.9,539.3,174.3,539.1,173.8z"/>
	</g>
	<g class="st1">
		<path class="st0" d="M547.5,181.9c0.2,0.8,0.5,1.5,1,2.2c0.5,0.6,1,1.2,1.8,1.6c0.7,0.4,1.6,0.6,2.5,0.6c1.5,0,2.7-0.4,3.6-1.2
			s1.5-1.8,1.8-3.2h2.1c-0.4,1.9-1.2,3.4-2.4,4.5s-2.8,1.6-5,1.6c-1.3,0-2.5-0.2-3.5-0.7c-1-0.5-1.8-1.1-2.4-1.9
			c-0.6-0.8-1.1-1.8-1.4-2.9s-0.4-2.2-0.4-3.4c0-1.1,0.1-2.2,0.4-3.3c0.3-1.1,0.8-2,1.4-2.9c0.6-0.8,1.4-1.5,2.4-2s2.1-0.8,3.5-0.8
			c1.4,0,2.5,0.3,3.5,0.8c1,0.6,1.8,1.3,2.4,2.2c0.6,0.9,1,1.9,1.3,3.1c0.3,1.2,0.4,2.3,0.3,3.5h-13.1
			C547.2,180.4,547.3,181.1,547.5,181.9z M557.8,175.6c-0.3-0.7-0.6-1.4-1.1-1.9c-0.5-0.6-1-1-1.7-1.4c-0.7-0.3-1.4-0.5-2.2-0.5
			c-0.9,0-1.6,0.2-2.3,0.5c-0.7,0.3-1.2,0.8-1.7,1.4c-0.5,0.6-0.8,1.2-1.1,1.9c-0.3,0.7-0.5,1.5-0.5,2.3h11
			C558.2,177.1,558,176.3,557.8,175.6z"/>
	</g>
	<g class="st1">
		<path class="st0" d="M573.9,173.8c-0.2-0.5-0.6-0.9-1-1.2c-0.4-0.3-0.9-0.5-1.4-0.7c-0.5-0.1-1.1-0.2-1.7-0.2
			c-0.5,0-0.9,0-1.4,0.1c-0.5,0.1-0.9,0.3-1.3,0.5c-0.4,0.2-0.7,0.5-1,0.9c-0.2,0.4-0.4,0.8-0.4,1.4c0,0.5,0.1,0.9,0.3,1.2
			c0.2,0.3,0.5,0.6,0.9,0.8c0.4,0.2,0.7,0.4,1.2,0.5c0.4,0.1,0.8,0.3,1.2,0.3l2.8,0.6c0.6,0.1,1.2,0.2,1.8,0.5
			c0.6,0.2,1.1,0.5,1.6,0.9s0.8,0.8,1.1,1.4c0.3,0.6,0.4,1.2,0.4,1.9c0,0.9-0.2,1.7-0.6,2.4c-0.4,0.6-1,1.2-1.6,1.6
			c-0.6,0.4-1.4,0.7-2.2,0.9c-0.8,0.2-1.6,0.3-2.4,0.3c-2,0-3.6-0.5-4.9-1.4c-1.2-0.9-2-2.5-2.1-4.6h2.1c0.1,1.4,0.6,2.5,1.5,3.2
			c0.9,0.7,2.1,1.1,3.5,1.1c0.5,0,1-0.1,1.6-0.2s1-0.3,1.5-0.6c0.5-0.3,0.8-0.6,1.1-1c0.3-0.4,0.4-0.9,0.4-1.5
			c0-0.5-0.1-0.9-0.3-1.3c-0.2-0.3-0.5-0.6-0.8-0.9c-0.4-0.2-0.8-0.4-1.2-0.6c-0.5-0.2-0.9-0.3-1.4-0.4l-2.7-0.6
			c-0.7-0.2-1.3-0.4-1.9-0.6c-0.6-0.2-1.1-0.5-1.5-0.9c-0.4-0.3-0.8-0.8-1-1.3c-0.2-0.5-0.4-1.1-0.4-1.8c0-0.9,0.2-1.6,0.6-2.2
			c0.4-0.6,0.9-1.1,1.5-1.5c0.6-0.4,1.3-0.6,2.1-0.8s1.5-0.3,2.3-0.3c0.9,0,1.7,0.1,2.4,0.3c0.7,0.2,1.4,0.6,1.9,1
			c0.6,0.5,1,1,1.3,1.7c0.3,0.7,0.5,1.5,0.6,2.4h-2.1C574.3,174.9,574.2,174.3,573.9,173.8z"/>
	</g>
	<path class="st2" d="M158.2,109l-4.7-1.9c5.5-13.8,1.3-29.7-10.4-38.9l3.1-4C159.7,74.8,164.6,93.1,158.2,109z"/>
	<path class="st2" d="M96.1,74l-4-3.1c10.6-13.5,28.8-18.4,44.7-12l-1.8,4.7C121.2,58,105.3,62.3,96.1,74z"/>
	<path class="st2" d="M122.4,133.1c-4.9,0-9.8-0.9-14.3-2.8l1.9-4.7c13.8,5.5,29.7,1.3,38.9-10.4l4,3.1
		C145.5,127.7,134.3,133.1,122.4,133.1z"/>
	<path class="st2" d="M98.7,124.9c-13.5-10.6-18.4-28.8-12-44.7l4.7,1.9c-5.6,13.8-1.3,29.7,10.4,38.9L98.7,124.9z"/>
	<path class="st2" d="M73.8,116.2C63.8,93.3,71,66.4,91.2,51.6l3,4.1c-18.3,13.4-24.8,37.7-15.7,58.5L73.8,116.2z"/>
	<path class="st2" d="M161.4,66.3C148,48,123.7,41.4,102.9,50.6l-2.1-4.6c22.9-10.1,49.8-2.9,64.6,17.3L161.4,66.3z"/>
	<path class="st2" d="M122.6,147.8c-17,0-33.1-8.1-43.1-21.8l4.1-3c13.4,18.3,37.7,24.8,58.5,15.7l2.1,4.6
		C137.3,146.2,130,147.8,122.6,147.8z"/>
	<path class="st2" d="M153.8,137.6l-2.9-4.1c18.3-13.4,24.8-37.7,15.7-58.5l4.6-2C181.2,96,174,122.8,153.8,137.6z"/>
	<path class="st2" d="M184.8,88.5c-2.9-30.4-27.3-54.3-57.8-56.4l0.4-5c32.9,2.3,59.3,28.1,62.4,60.9L184.8,88.5z"/>
	<path class="st2" d="M60,90.1l-5-0.4c2.3-32.9,28.1-59.4,60.9-62.5l0.5,5C86,35.1,62.1,59.6,60,90.1z"/>
	<path class="st2" d="M129,162l-0.5-5c30.4-2.9,54.3-27.3,56.4-57.8l5,0.4C187.6,132.5,161.9,158.9,129,162z"/>
	<path class="st2" d="M117.6,162.1c-32.9-2.3-59.4-28.1-62.5-60.9l5-0.5C63,131.1,87.5,155,118,157.1L117.6,162.1z"/>
</g>
</svg>
