<?xml version="1.0" encoding="utf-8"?>
<!-- Generator: Adobe Illustrator 19.2.0, SVG Export Plug-In . SVG Version: 6.00 Build 0)  -->
<svg version="1.1" id="Layer_1" xmlns="http://www.w3.org/2000/svg" xmlns:xlink="http://www.w3.org/1999/xlink" x="0px" y="0px"
	 viewBox="0 0 112.2 40" style="enable-background:new 0 0 112.2 40;" xml:space="preserve">
<style type="text/css">
	.st0{fill:#F68A32;}
</style>
<g>
	<path class="st0" d="M8.8,39.9c2.1,0,4.2,0.2,6.2-0.7V34c-0.8-0.3-1.5-0.8-2.2-1.3c-0.8-0.6-1.3-2.1-1.3-3.4v-9.8
		c0-0.7,0-1.2,0.3-1.7c0.4-0.5,0.9-0.7,1.5-0.7h2.3v-5.4h-2.5c-0.6,0-1.2-0.1-1.5-0.7c-0.2-0.3-0.3-0.4-0.3-0.8V1.8L1.6,4.6v4.8
		c0,0.8-0.3,1.3-0.7,1.8c-0.3,0.3-0.5,0.4-0.9,0.5v5.1c0.5,0.3,0.9,0.7,1.1,1.2c0.3,0.7,0.4,1.3,0.4,2.1v12.4
		C1.5,36.6,2.9,39.6,8.8,39.9"/>
	<path class="st0" d="M96.2,19.2c0-0.3,0.1-0.6,0.2-0.8c0.2-0.4,0.8-0.5,1.1-0.5H99c0.8,0,1.2,0.4,1.6,0.8c1,1.1,0.7,3.3,0.7,4.7
		v16.1h10.9v-6c-0.3-0.1-0.6-0.4-0.8-0.7c-0.3-0.6-0.3-1-0.3-1.6V18.4c0-8.3-7.9-9.2-13.2-6.3c-0.5,0.2-1.9,0.7-1.9-0.4v-0.8h-11
		v5.6c0.4,0.3,0.6,0.5,0.9,0.9c0.4,0.7,0.8,1.2,0.8,2.1v11.3c0,0.6,0,1.2-0.3,1.7c-0.2,0.3-0.4,0.6-0.7,0.7v6.2h12.4v-6
		c-0.5-0.2-0.8-0.5-1.1-0.9c-0.4-0.5-0.6-1.1-0.6-1.8V20.1C96.2,19.8,96.2,19.4,96.2,19.2"/>
	<path class="st0" d="M63.7,11.3c-0.6,0-1.2-0.1-1.6-0.6c-0.2-0.3-0.3-0.4-0.3-0.9V9.1c0-1,0.3-1.9,1.1-2.6c0.6-0.4,1.8-1,3-0.8V0.6
		c-2-0.8-4.2-0.6-6.3-0.5c-5.9,0.3-7.8,3.5-7.8,7.8v1.4c0,0.7-0.1,1.2-0.6,1.8c-0.2,0.2-0.4,0.4-0.7,0.4v5.3c0.5,0.3,0.8,0.7,1,1.2
		c0.3,0.7,0.2,1.4,0.2,2.1v10.9c0,0.7,0.1,1.4-0.4,2.1c-0.2,0.3-0.5,0.5-0.8,0.6v5.9h12.8v-5.8c-0.4-0.2-0.7-0.4-1-0.8
		c-0.4-0.6-0.5-1.2-0.5-1.9l-0.1-11.5c0-0.7-0.1-1.2,0.3-1.8c0.4-0.5,1.1-0.6,1.6-0.6H65v-5.6H63.7z"/>
	<path class="st0" d="M33.9,11.2v5.5c0.5,0.2,1,0.4,1.3,1c0.4,0.5,0.5,1.1,0.5,1.7v11.2c0,0.5,0,1.2-0.3,1.7c-0.2,0.4-0.7,0.6-1,0.6
		h-1.6c-0.8,0-1.6-0.1-2.2-0.8c-1-1.1-0.6-3.4-0.6-4.7V11.2H18.1v5.5c0.3,0.1,0.6,0.2,0.8,0.4c0.6,0.5,0.9,1,0.9,1.8v13.2
		c0,8.3,8.8,9.3,14.2,6.3c0.6-0.3,1.9-0.7,1.9,0.4v0.6H47v-5.3c-0.5-0.2-1.1-0.6-1.2-1.1c-0.2-0.8-0.4-1.2-0.4-2V11.2H33.9z"/>
	<path class="st0" d="M69.1,11.1v5.5c0.4,0.2,0.6,0.5,0.9,0.9c0.4,0.6,0.8,1.2,0.8,2.1v11.2c0,0.7,0,1.2-0.3,1.8
		c-0.2,0.3-0.4,0.5-0.7,0.7v6.1H82v-6.1c-0.3-0.2-0.5-0.4-0.7-0.7c-0.3-0.5-0.7-1-0.7-1.8V11.1H69.1z"/>
</g>
</svg>
